<?xml version="1.0" encoding="iso-8859-1"?>
<!-- Uploaded to: SVG Repo, www.svgrepo.com, Generator: SVG Repo Mixer Tools -->
<svg fill="#ff5e00" height="800px" width="800px" version="1.1" id="Layer_1" xmlns="http://www.w3.org/2000/svg" xmlns:xlink="http://www.w3.org/1999/xlink" 
	 viewBox="0 0 512 512" xml:space="preserve">
<g>
	<g>
		<g>
			<path d="M448,21.331H64c-35.355,0-64,28.645-64,64v128c0,35.355,28.645,64,64,64h384c35.355,0,64-28.645,64-64v-128
				C512,49.976,483.355,21.331,448,21.331z M469.333,213.331c0,11.791-9.542,21.333-21.333,21.333H64
				c-11.791,0-21.333-9.542-21.333-21.333v-128c0-11.791,9.542-21.333,21.333-21.333h384c11.791,0,21.333,9.542,21.333,21.333
				V213.331z"/>
			<path d="M405.333,170.664H106.667c-11.782,0-21.333,9.551-21.333,21.333s9.551,21.333,21.333,21.333h298.667
				c11.782,0,21.333-9.551,21.333-21.333S417.115,170.664,405.333,170.664z"/>
			<path d="M265.819,369.048c-9.541-4.938-9.541-3.831,0-8.777c10.46-5.423,14.544-18.298,9.121-28.758
				c-5.423-10.46-18.298-14.544-28.758-9.121c-40.251,20.867-40.251,63.702,0.013,84.542c9.53,4.941,9.53,17.178-0.013,22.125
				c-10.46,5.423-14.544,18.298-9.121,28.758c5.423,10.46,18.298,14.544,28.758,9.121
				C306.068,446.071,306.068,389.914,265.819,369.048z"/>
			<path d="M161.819,390.381c-9.541-4.938-9.541-3.831,0-8.777c10.46-5.423,14.544-18.298,9.121-28.758
				c-5.423-10.46-18.298-14.544-28.758-9.121c-40.251,20.867-40.251,63.702,0.013,84.542c8.527,4.421,7.833,16.675-2.68,22.125
				c-10.46,5.423-14.544,18.298-9.121,28.758c5.423,10.46,18.298,14.544,28.758,9.121
				C199.184,467.517,202.361,411.399,161.819,390.381z"/>
			<path d="M372.485,390.381c-9.541-4.938-9.541-3.831,0-8.777c10.46-5.423,14.544-18.298,9.121-28.758
				c-5.423-10.46-18.298-14.544-28.758-9.121c-40.251,20.867-40.251,63.702,0.013,84.542c9.53,4.941,9.53,17.178-0.013,22.125
				c-10.46,5.423-14.544,18.298-9.121,28.758c5.423,10.46,18.298,14.544,28.758,9.121
				C412.734,467.405,412.734,411.247,372.485,390.381z"/>
		</g>
	</g>
</g>
</svg>